<?xml version="1.0" encoding="UTF-8"?>
<svg width="700pt" height="700pt" version="1.1" viewBox="0 0 700 700" xmlns="http://www.w3.org/2000/svg" xmlns:xlink="http://www.w3.org/1999/xlink">
 <g>
  <path d="m197.57 72.867c-5.7695 0.63281-10.098 5.5664-9.9727 11.367v16.789h-50.398c-18.422 0-33.602 15.172-33.602 33.582v319.01c0 18.41 15.18 33.582 33.602 33.582h425.6c18.422 0 33.602-15.172 33.602-33.582v-319.01c0-18.41-15.18-33.582-33.602-33.582h-50.398v-16.789h-0.007812c0.070312-3.2227-1.2539-6.3203-3.6328-8.4961-2.3789-2.1797-5.582-3.2227-8.7891-2.8711-5.7734 0.63281-10.102 5.5664-9.9766 11.367v16.789h-128.8v-16.789c0.070312-3.2227-1.2539-6.3203-3.6328-8.4961-2.3828-2.1797-5.5859-3.2227-8.793-2.8711-5.7695 0.63281-10.098 5.5664-9.9727 11.367v16.789h-128.8v-16.789c0.070312-3.2227-1.2539-6.3203-3.6367-8.4961-2.3789-2.1797-5.582-3.2227-8.7891-2.8711zm-60.375 50.547h50.398v25.535c-6.6836 3.875-11.199 10.961-11.199 19.238 0 12.363 10.027 22.387 22.398 22.387s22.398-10.023 22.398-22.387c0-8.2773-4.5156-15.367-11.199-19.238v-25.535h128.8v25.535c-6.6836 3.875-11.199 10.961-11.199 19.238 0 12.363 10.027 22.387 22.398 22.387s22.398-10.023 22.398-22.387c0-8.2773-4.5156-15.367-11.199-19.238v-25.535h128.8v25.535c-6.6836 3.875-11.199 10.961-11.199 19.238 0 12.363 10.027 22.387 22.398 22.387 12.371 0 22.398-10.023 22.398-22.387 0-8.2773-4.5156-15.367-11.199-19.238v-25.535h50.398c6.3984 0 11.199 4.8008 11.199 11.195v78.355h-448v-78.355c0-6.3945 4.8008-11.195 11.199-11.195zm-11.199 111.93h448v218.27c0 6.3945-4.8008 11.191-11.199 11.191h-425.6c-6.3984 0-11.199-4.7969-11.199-11.191z"/>
  <use x="70" y="644" xlink:href="#u"/>
  <use x="90.550781" y="644" xlink:href="#b"/>
  <use x="104.359375" y="644" xlink:href="#a"/>
  <use x="123.347656" y="644" xlink:href="#j"/>
  <use x="142.242188" y="644" xlink:href="#d"/>
  <use x="155.628906" y="644" xlink:href="#a"/>
  <use x="174.617188" y="644" xlink:href="#i"/>
  <use x="204.410156" y="644" xlink:href="#h"/>
  <use x="224.453125" y="644" xlink:href="#g"/>
  <use x="252.453125" y="644" xlink:href="#f"/>
  <use x="270.703125" y="644" xlink:href="#t"/>
  <use x="280.300781" y="644" xlink:href="#s"/>
  <use x="300.34375" y="644" xlink:href="#c"/>
  <use x="319.578125" y="644" xlink:href="#b"/>
  <use x="333.390625" y="644" xlink:href="#e"/>
  <use x="70" y="672" xlink:href="#r"/>
  <use x="82.183594" y="672" xlink:href="#b"/>
  <use x="95.992188" y="672" xlink:href="#c"/>
  <use x="115.226562" y="672" xlink:href="#q"/>
  <use x="154.152344" y="672" xlink:href="#d"/>
  <use x="167.535156" y="672" xlink:href="#p"/>
  <use x="187.46875" y="672" xlink:href="#a"/>
  <use x="216.207031" y="672" xlink:href="#o"/>
  <use x="239.640625" y="672" xlink:href="#c"/>
  <use x="258.878906" y="672" xlink:href="#n"/>
  <use x="278.8125" y="672" xlink:href="#e"/>
  <use x="308.492188" y="672" xlink:href="#m"/>
  <use x="329.015625" y="672" xlink:href="#b"/>
  <use x="342.820312" y="672" xlink:href="#c"/>
  <use x="362.058594" y="672" xlink:href="#l"/>
  <use x="371.65625" y="672" xlink:href="#a"/>
  <use x="390.648438" y="672" xlink:href="#k"/>
  <use x="407.242188" y="672" xlink:href="#d"/>
 </g>
</svg>
