<?xml version="1.0" encoding="UTF-8"?>
<svg width="700pt" height="700pt" version="1.1" viewBox="0 0 700 700" xmlns="http://www.w3.org/2000/svg" xmlns:xlink="http://www.w3.org/1999/xlink">
 <g>
  <path d="m282.8 425.6c2.2383 1.6797 50.961 43.68 115.36 67.762 5.6016 2.2383 12.32-0.55859 14.559-6.7188 2.2383-5.6016-0.55859-12.32-6.7188-14.559-60.48-22.406-108.08-63.285-108.64-63.285-71.121-62.723-105.84-113.68-122.08-145.6-17.359-34.16-18.48-54.32-18.48-54.32v-2.2383c-16.238-71.121 32.48-113.12 34.16-114.8 14.559-12.32 28.559-5.6016 31.922-3.3594l63.836 62.719c6.7188 6.7188 9.5195 13.441 9.5195 20.16-0.55859 11.199-9.5195 19.602-9.5195 19.602l-30.238 30.238c-3.3594 3.3594-4.4805 8.3984-2.2383 12.32 27.441 61.039 78.961 106.4 117.6 133.28 5.0391 3.3594 10.078 6.7188 15.121 10.078 12.879 7.8398 20.719 12.32 21.281 12.32 4.4805 2.2383 9.5195 1.6797 12.879-1.6797l37.52-36.961c15.121-8.9609 24.078-1.1211 25.762 0.55859l0.55859 0.55859 64.961 63.281c6.1602 7.8398 8.9609 15.121 7.8398 21.84-1.1211 8.9609-8.3984 15.121-8.3984 15.121-0.55859 0.55859-1.1211 1.1211-1.6797 1.6797-36.398 43.121-88.48 32.48-91.281 31.922-6.1602-1.1211-11.762 2.2383-13.441 8.3984-1.1211 6.1602 2.2383 11.762 8.3984 13.441 1.1211 0 9.5195 2.2383 21.84 2.2383 23.52 0 61.039-6.1602 90.719-40.32 3.9219-2.8008 14-12.879 16.238-29.121 1.6797-13.441-2.8008-26.32-12.879-39.762-0.55859-0.55859-0.55859-0.55859-1.1211-1.1211l-65.52-63.832c-7.8398-8.3984-29.121-20.16-54.879-3.9219l-1.6797 1.6797-32.48 31.922c-3.3594-1.6797-7.2812-4.4805-12.32-7.2812-5.0391-2.8008-9.5195-6.1602-14.559-9.5195-35.281-24.641-81.203-64.398-107.52-117.04l24.078-24.078c2.8008-2.2383 16.238-15.68 16.801-34.719 0.55859-12.879-5.0391-25.199-16.238-36.961l-64.398-64.402c-0.55859-0.55859-1.1211-0.55859-1.1211-1.1211-10.641-7.2812-36.398-16.238-59.922 4.4805-2.2383 2.2383-60.48 52.078-42 136.08 1.1211 11.203 11.203 95.203 148.4 215.04z"/>
  <use x="70" y="644" xlink:href="#u"/>
  <use x="90.550781" y="644" xlink:href="#c"/>
  <use x="104.359375" y="644" xlink:href="#a"/>
  <use x="123.347656" y="644" xlink:href="#e"/>
  <use x="142.242188" y="644" xlink:href="#b"/>
  <use x="155.628906" y="644" xlink:href="#a"/>
  <use x="174.617188" y="644" xlink:href="#k"/>
  <use x="204.410156" y="644" xlink:href="#j"/>
  <use x="224.453125" y="644" xlink:href="#i"/>
  <use x="252.453125" y="644" xlink:href="#h"/>
  <use x="262.867188" y="644" xlink:href="#g"/>
  <use x="279.46875" y="644" xlink:href="#d"/>
  <use x="298.703125" y="644" xlink:href="#f"/>
  <use x="328.382812" y="644" xlink:href="#t"/>
  <use x="356.25" y="644" xlink:href="#e"/>
  <use x="375.140625" y="644" xlink:href="#s"/>
  <use x="391.808594" y="644" xlink:href="#b"/>
  <use x="405.195312" y="644" xlink:href="#a"/>
  <use x="424.183594" y="644" xlink:href="#c"/>
  <use x="70" y="672" xlink:href="#r"/>
  <use x="82.183594" y="672" xlink:href="#c"/>
  <use x="95.992188" y="672" xlink:href="#d"/>
  <use x="115.226562" y="672" xlink:href="#q"/>
  <use x="154.152344" y="672" xlink:href="#b"/>
  <use x="167.535156" y="672" xlink:href="#p"/>
  <use x="187.46875" y="672" xlink:href="#a"/>
  <use x="216.207031" y="672" xlink:href="#o"/>
  <use x="239.640625" y="672" xlink:href="#d"/>
  <use x="258.878906" y="672" xlink:href="#n"/>
  <use x="278.8125" y="672" xlink:href="#f"/>
  <use x="308.492188" y="672" xlink:href="#m"/>
  <use x="329.015625" y="672" xlink:href="#c"/>
  <use x="342.820312" y="672" xlink:href="#d"/>
  <use x="362.058594" y="672" xlink:href="#l"/>
  <use x="371.65625" y="672" xlink:href="#a"/>
  <use x="390.648438" y="672" xlink:href="#g"/>
  <use x="407.242188" y="672" xlink:href="#b"/>
 </g>
</svg>
