<?xml version="1.0" encoding="UTF-8"?>
<svg width="700pt" height="700pt" version="1.1" viewBox="0 0 700 700" xmlns="http://www.w3.org/2000/svg" xmlns:xlink="http://www.w3.org/1999/xlink">
 <g>
  <path d="m540.4 156.8h-78.398v-33.602c0-30.879-25.121-56-56-56h-112c-30.879 0-56 25.121-56 56v33.602h-78.398c-18.531 0-33.602 15.07-33.602 33.602v268.8c0 18.531 15.07 33.602 33.602 33.602h380.8c18.531 0 33.602-15.07 33.602-33.602l-0.003906-268.8c0-18.527-15.07-33.598-33.602-33.598zm-280-33.602c0-18.531 15.07-33.602 33.602-33.602h112c18.531 0 33.602 15.07 33.602 33.602v33.602h-22.398v-33.602c0-6.1836-5.0195-11.199-11.199-11.199h-112c-6.1836 0-11.199 5.0195-11.199 11.199v33.602h-22.398zm134.4 33.602h-89.602v-22.398h89.602zm145.6 313.6h-380.8c-6.1758 0-11.199-5.0234-11.199-11.199l-0.003906-154.09c13.492 15.598 33.391 25.289 55.094 25.289h118.51v28c0 3.0898 2.5039 5.6016 5.6016 5.6016h44.801c3.0977 0 5.6016-2.5078 5.6016-5.6016v-28h39.199c3.0977 0 5.6016-2.5078 5.6016-5.6016 0-3.0898-2.5039-5.6016-5.6016-5.6016h-39.199v-28c0-3.0898-2.5039-5.6016-5.6016-5.6016h-44.801c-3.0977 0-5.6016 2.5078-5.6016 5.6016v28l-118.5 0.003907h-0.011718c-23.699 0-44.852-13.66-55.094-34.086v-94.715c0-6.1758 5.0234-11.199 11.199-11.199h380.8c6.1758 0 11.199 5.0234 11.199 11.199v94.711c-10.238 20.434-31.391 34.09-55.09 34.09h-34.508c-3.0977 0-5.6016 2.5078-5.6016 5.6016 0 3.0898 2.5039 5.6016 5.6016 5.6016h34.496 0.011718c21.707 0 41.602-9.6953 55.094-25.289v154.09c0 6.1758-5.0234 11.199-11.203 11.199zm-207.2-117.6v-56h33.602v56zm112-28c0 3.0898-2.5078 5.6016-5.6016 5.6016-3.0898 0-5.6016-2.5078-5.6016-5.6016 0-3.0898 2.5078-5.6016 5.6016-5.6016s5.6016 2.5078 5.6016 5.6016zm-201.6 117.6c0 3.0898-2.5039 5.6016-5.6016 5.6016h-61.602c-3.0977 0-5.6016-2.5078-5.6016-5.6016 0-3.0898 2.5039-5.6016 5.6016-5.6016h61.602c3.0977 0.003906 5.6016 2.5117 5.6016 5.6016zm22.398-22.398c0 3.0898-2.5039 5.6016-5.6016 5.6016h-84c-3.0977 0-5.6016-2.5078-5.6016-5.6016 0-3.0898 2.5039-5.6016 5.6016-5.6016h84c3.0977 0 5.6016 2.5117 5.6016 5.6016z"/>
  <use x="70" y="644" xlink:href="#w"/>
  <use x="90.550781" y="644" xlink:href="#d"/>
  <use x="104.359375" y="644" xlink:href="#b"/>
  <use x="123.347656" y="644" xlink:href="#j"/>
  <use x="142.242188" y="644" xlink:href="#c"/>
  <use x="155.628906" y="644" xlink:href="#b"/>
  <use x="174.617188" y="644" xlink:href="#i"/>
  <use x="204.410156" y="644" xlink:href="#f"/>
  <use x="224.453125" y="644" xlink:href="#e"/>
  <use x="252.453125" y="644" xlink:href="#h"/>
  <use x="272.617188" y="644" xlink:href="#b"/>
  <use x="291.609375" y="644" xlink:href="#c"/>
  <use x="304.992188" y="644" xlink:href="#e"/>
  <use x="323.242188" y="644" xlink:href="#a"/>
  <use x="352.226562" y="644" xlink:href="#v"/>
  <use x="373.898438" y="644" xlink:href="#d"/>
  <use x="387.707031" y="644" xlink:href="#g"/>
  <use x="407.054688" y="644" xlink:href="#u"/>
  <use x="437.9375" y="644" xlink:href="#g"/>
  <use x="447.535156" y="644" xlink:href="#f"/>
  <use x="467.578125" y="644" xlink:href="#a"/>
  <use x="486.8125" y="644" xlink:href="#t"/>
  <use x="512.679687" y="644" xlink:href="#a"/>
  <use x="70" y="672" xlink:href="#s"/>
  <use x="82.183594" y="672" xlink:href="#d"/>
  <use x="95.992188" y="672" xlink:href="#a"/>
  <use x="115.226562" y="672" xlink:href="#r"/>
  <use x="154.152344" y="672" xlink:href="#c"/>
  <use x="167.535156" y="672" xlink:href="#q"/>
  <use x="187.46875" y="672" xlink:href="#b"/>
  <use x="216.207031" y="672" xlink:href="#p"/>
  <use x="239.640625" y="672" xlink:href="#a"/>
  <use x="258.878906" y="672" xlink:href="#o"/>
  <use x="278.8125" y="672" xlink:href="#n"/>
  <use x="308.492188" y="672" xlink:href="#m"/>
  <use x="329.015625" y="672" xlink:href="#d"/>
  <use x="342.820312" y="672" xlink:href="#a"/>
  <use x="362.058594" y="672" xlink:href="#l"/>
  <use x="371.65625" y="672" xlink:href="#b"/>
  <use x="390.648438" y="672" xlink:href="#k"/>
  <use x="407.242188" y="672" xlink:href="#c"/>
 </g>
</svg>
